<svg width="210" height="24" viewBox="0 0 210 24" fill="none" xmlns="http://www.w3.org/2000/svg">
<line y1="0.5" x2="210" y2="0.5" stroke="white"/>
<line y1="23.5" x2="210" y2="23.5" stroke="white"/>
<path d="M2.27841 18H9.30682V16.4886H4.03409V6.36364H2.27841V18Z" fill="white"/>
<path d="M53.0341 6.36364H51.2784V18H53.0341V6.36364Z" fill="white"/>
<path d="M105.67 6.36364H103.932V14.9091H103.824L97.9034 6.36364H96.2784V18H98.0341V9.46591H98.142L104.057 18H105.67V6.36364Z" fill="white"/>
<path d="M148.278 18H155.642V16.4886H150.034V12.9261H155.193V11.4205H150.034V7.875H155.574V6.36364H148.278V18Z" fill="white"/>
<path d="M199.261 18L200.33 14.9205H204.875L205.938 18H207.801L203.614 6.36364H201.585L197.398 18H199.261ZM200.841 13.4432L202.557 8.47727H202.648L204.364 13.4432H200.841Z" fill="white"/>
</svg>
